<?xml version="1.0" standalone="no"?>
<!DOCTYPE svg PUBLIC "-//W3C//DTD SVG 20010904//EN"
 "http://www.w3.org/TR/2001/REC-SVG-20010904/DTD/svg10.dtd">
<svg version="1.0" xmlns="http://www.w3.org/2000/svg"
 width="500.000000pt" height="164.000000pt" viewBox="0 0 500.000000 164.000000"
 preserveAspectRatio="xMidYMid meet">

<g transform="translate(0.000000,164.000000) scale(0.100000,-0.100000)"
fill="#000000" stroke="none">
<path d="M1420 1540 c-272 -49 -647 -325 -750 -553 -26 -57 -26 -146 0 -197
35 -68 160 -152 160 -107 0 8 -18 28 -40 46 -35 28 -40 37 -40 75 0 68 47 150
139 241 97 96 199 167 334 233 162 79 254 106 369 107 120 0 137 -11 118 -71
-38 -117 -123 -237 -289 -408 -149 -152 -306 -276 -351 -276 -12 0 83 185 175
341 30 51 53 100 50 107 -2 7 0 10 5 7 6 -4 17 10 25 29 15 34 14 38 -7 66
-12 17 -30 30 -39 30 -60 0 -281 -299 -391 -530 -123 -256 -163 -436 -120
-532 34 -77 141 -138 159 -92 4 10 -1 20 -12 26 -15 9 -16 20 -11 82 8 78 41
215 63 259 12 23 19 28 36 22 69 -21 90 -16 212 54 229 131 514 444 591 648
39 102 31 168 -30 266 -54 87 -72 104 -123 123 -41 14 -161 16 -233 4z m-561
-445 c-40 -41 -75 -75 -77 -75 -8 0 80 100 109 125 54 45 42 27 -32 -50z m419
23 c-11 -16 -23 -27 -26 -24 -7 7 -32 -13 -32 -26 0 -6 8 -4 17 3 20 17 18 14
-38 -72 -49 -73 -124 -202 -188 -321 -29 -54 -55 -98 -58 -98 -7 0 105 211
160 302 47 77 55 94 38 84 -5 -4 -11 -3 -14 1 -2 5 -2 2 0 -5 5 -22 -8 -36
-19 -21 -8 11 -9 10 -4 -3 3 -11 -20 -60 -60 -130 -37 -62 -79 -139 -95 -171
-17 -32 -34 -55 -39 -52 -6 3 -10 2 -10 -4 0 -5 -3 -17 -7 -27 -4 -11 -3 -15
5 -10 6 3 -3 -31 -20 -76 -16 -46 -38 -119 -48 -163 -10 -44 -19 -68 -19 -54
-1 14 8 59 18 99 23 85 20 108 -2 28 -9 -29 -20 -69 -26 -88 l-11 -35 6 40
c11 77 69 231 145 380 41 83 80 149 86 148 7 -2 11 5 10 15 -1 24 33 73 46 65
6 -4 8 0 5 9 -7 18 26 73 44 73 6 0 13 6 16 14 3 9 0 11 -9 6 -8 -5 -11 -4 -6
1 5 5 14 9 20 9 7 0 12 9 12 20 0 11 6 20 12 20 7 0 20 11 29 25 29 42 54 67
69 67 11 0 9 -7 -7 -29z m431 10 c-46 -87 -273 -358 -287 -343 -3 3 24 36 61
73 61 62 91 104 50 71 -9 -8 5 13 33 47 28 33 60 77 73 97 23 38 35 48 25 22
-11 -27 4 -16 26 20 24 39 37 48 19 13z m-849 8 c0 -2 -8 -10 -17 -17 -16 -13
-17 -12 -4 4 13 16 21 21 21 13z m-79 -93 c-32 -39 -42 -64 -16 -43 9 7 6 -4
-8 -29 -12 -22 -24 -35 -26 -29 -2 6 -10 0 -18 -13 l-14 -24 7 24 c4 16 3 21
-5 17 -6 -4 -4 8 5 28 10 19 20 34 24 33 3 -1 21 15 39 36 43 48 52 48 12 0z
m459 -53 c-6 -11 -13 -20 -16 -20 -2 0 0 9 6 20 6 11 13 20 16 20 2 0 0 -9 -6
-20z m399 -12 c-15 -29 -247 -266 -274 -280 -10 -6 19 25 65 70 47 44 114 114
150 156 36 41 66 76 68 76 1 0 -3 -10 -9 -22z m51 -8 c-12 -16 -24 -30 -26
-30 -3 0 4 14 16 30 12 17 24 30 26 30 3 0 -4 -13 -16 -30z m-30 -44 c0 -2 -8
-10 -17 -17 -16 -13 -17 -12 -4 4 13 16 21 21 21 13z m-485 -46 c-9 -16 -18
-30 -21 -30 -2 0 2 14 11 30 9 17 18 30 21 30 2 0 -2 -13 -11 -30z m-278 -465
c-17 -52 -33 -92 -35 -90 -4 3 45 159 55 178 14 24 7 -5 -20 -88z m39 -31
c-14 -38 -25 -64 -25 -58 -1 15 40 136 45 131 2 -2 -7 -35 -20 -73z"/>
<path d="M1260 1125 c-7 -9 -10 -18 -7 -21 3 -3 10 4 17 15 13 25 8 27 -10 6z"/>
<path d="M1186 1019 c-15 -22 -26 -43 -23 -45 2 -2 16 14 31 37 15 22 26 43
23 45 -2 2 -16 -14 -31 -37z"/>
<path d="M1066 868 l-18 -33 21 25 c18 22 26 40 18 40 -1 0 -11 -15 -21 -32z"/>
<path d="M1021 793 c-10 -26 -10 -27 4 -9 8 11 15 23 15 28 0 15 -7 8 -19 -19z"/>
<path d="M970 700 c-17 -33 -28 -60 -25 -60 2 0 18 27 35 60 17 33 28 60 25
60 -2 0 -18 -27 -35 -60z"/>
<path d="M926 615 c-9 -26 -7 -32 5 -12 6 10 9 21 6 23 -2 3 -7 -2 -11 -11z"/>
<path d="M876 495 c-9 -26 -7 -32 5 -12 6 10 9 21 6 23 -2 3 -7 -2 -11 -11z"/>
<path d="M1647 1068 c-2 -7 -26 -40 -53 -73 -26 -33 -38 -51 -25 -40 30 26 95
115 88 121 -2 3 -7 -1 -10 -8z"/>
<path d="M736 975 c-9 -26 -7 -32 5 -12 6 10 9 21 6 23 -2 3 -7 -2 -11 -11z"/>
<path d="M2624 1418 c-84 -91 -268 -470 -388 -799 -32 -90 -233 -264 -282
-245 -11 4 -13 15 -9 43 11 66 26 104 101 269 41 89 74 167 74 173 0 22 -64
71 -90 68 -66 -6 -210 -284 -210 -407 0 -106 81 -210 163 -210 31 0 112 60
169 125 l43 49 5 -82 c5 -68 10 -85 30 -108 28 -29 79 -58 88 -50 3 4 7 41 8
84 2 105 41 251 63 237 5 -2 21 -28 36 -57 84 -160 231 -288 332 -288 47 0
113 25 113 43 0 6 -20 23 -45 36 -78 41 -210 191 -275 312 -16 31 -30 61 -30
65 0 5 40 22 89 37 129 41 280 118 343 176 55 51 98 121 98 162 0 34 -19 97
-31 105 -6 3 -36 -20 -66 -51 -31 -32 -87 -77 -123 -101 -110 -71 -310 -156
-310 -132 0 5 27 66 59 136 107 230 119 257 135 296 20 47 21 96 3 96 -8 0
-19 11 -25 25 -15 33 -32 32 -68 -7z m51 -39 c-5 -15 -4 -19 4 -15 6 4 -41
-97 -104 -225 -63 -127 -113 -235 -110 -239 3 -4 -2 -10 -10 -14 -8 -3 -15
-12 -15 -20 0 -8 -4 -18 -10 -21 -16 -10 0 25 114 253 58 117 106 214 106 216
0 11 -34 -3 -38 -15 -3 -11 -1 -11 7 1 6 8 11 11 10 5 0 -12 -228 -463 -228
-453 -1 3 15 39 34 80 19 40 33 79 30 86 -3 8 0 10 7 6 8 -5 9 -2 5 10 -5 11
-3 15 5 10 8 -5 9 -2 5 10 -5 11 -3 15 5 10 8 -5 9 -2 5 10 -5 11 -3 15 5 10
8 -5 9 -2 5 10 -5 11 -3 15 4 10 7 -4 10 -1 7 7 -8 21 100 231 114 223 7 -4 8
-3 4 4 -4 7 -2 20 4 29 11 17 11 17 6 0 -4 -12 -2 -16 5 -11 8 4 9 -1 5 -17
-6 -20 -5 -21 4 -6 6 9 9 21 6 26 -4 5 -3 16 0 25 9 24 16 19 9 -5z m18 -94
c-9 -19 -18 -33 -21 -31 -4 5 26 66 33 66 3 0 -3 -16 -12 -35z m-52 -111 c-16
-33 -30 -56 -31 -52 0 11 53 118 58 114 2 -2 -10 -30 -27 -62z m-38 -79 c-3
-9 -8 -14 -10 -11 -3 3 -2 9 2 15 9 16 15 13 8 -4z m358 -108 c-6 -8 -8 -16
-5 -19 6 -7 -69 -69 -105 -88 -18 -9 -22 -9 -16 0 4 7 4 11 -1 8 -211 -102
-258 -118 -84 -28 118 61 139 70 106 45 -11 -8 -16 -15 -10 -15 15 1 49 30 35
30 -14 0 68 79 83 80 5 0 3 -6 -3 -13z m-76 -33 c-33 -28 -256 -140 -295 -149
l-25 -5 25 12 c156 72 230 111 230 119 0 6 4 8 8 5 5 -3 24 6 43 19 44 31 52
31 14 -1z m-831 -105 c7 6 -19 -53 -58 -132 -39 -78 -72 -139 -74 -135 -2 3
24 61 58 128 64 129 77 176 18 68 -50 -92 -79 -156 -98 -217 -17 -52 -17 -53
-23 -23 -7 37 10 95 26 85 7 -4 8 0 4 11 -4 11 -3 15 4 10 7 -4 9 0 6 12 -3
11 3 35 13 54 11 19 19 28 20 20 0 -12 3 -11 11 3 5 9 7 22 3 29 -4 6 -3 8 3
5 5 -3 23 17 39 44 16 27 30 45 32 39 3 -7 8 -8 16 -1z m271 -269 c-15 -45
-29 -79 -32 -77 -2 3 8 41 23 86 15 45 29 79 31 77 3 -3 -7 -41 -22 -86z m238
-105 c15 -21 16 -26 4 -16 -10 8 -17 9 -17 3 0 -6 5 -14 10 -17 6 -3 10 -11
10 -16 0 -6 -5 -7 -12 -3 -7 4 -8 3 -4 -5 4 -6 11 -9 16 -6 4 2 26 -15 49 -40
43 -46 56 -72 21 -40 -11 10 -20 14 -20 10 0 -16 -62 50 -99 105 -51 76 -56
85 -43 76 17 -10 15 -1 -13 54 -14 27 -25 53 -25 57 1 4 15 -18 31 -51 17 -32
33 -56 35 -53 3 3 -6 28 -20 56 -41 80 -30 74 15 -9 22 -41 50 -88 62 -105z
m-271 69 c-11 -38 -24 -85 -29 -104 -8 -32 -9 -30 -9 23 0 38 3 52 8 40 5 -11
6 -5 3 17 -4 27 -2 32 6 20 9 -12 10 -11 6 8 -3 12 -2 20 3 17 4 -2 10 9 14
27 3 17 9 29 12 26 3 -3 -4 -37 -14 -74z m45 -56 c-3 -8 -6 -5 -6 6 -1 11 2
17 5 13 3 -3 4 -12 1 -19z m-10 -40 c-3 -8 -6 -5 -6 6 -1 11 2 17 5 13 3 -3 4
-12 1 -19z m328 -18 c10 -11 16 -20 13 -20 -3 0 -13 9 -23 20 -10 11 -16 20
-13 20 3 0 13 -9 23 -20z m-54 -7 c13 -16 12 -17 -3 -4 -10 7 -18 15 -18 17 0
8 8 3 21 -13z"/>
<path d="M2587 1255 c-9 -19 -15 -35 -12 -35 7 0 37 61 33 66 -3 2 -12 -12
-21 -31z"/>
<path d="M2913 944 c-20 -18 -22 -22 -7 -15 21 10 52 41 41 41 -3 0 -19 -12
-34 -26z"/>
<path d="M1932 695 c-17 -37 -14 -45 4 -12 9 16 14 31 11 33 -2 2 -9 -7 -15
-21z"/>
<path d="M1881 564 c0 -11 3 -14 6 -6 3 7 2 16 -1 19 -3 4 -6 -2 -5 -13z"/>
<path d="M2515 510 c6 -24 5 -24 -9 -6 -25 32 -18 9 10 -34 15 -22 29 -38 32
-35 3 3 -2 13 -11 23 -21 23 -22 39 -2 22 22 -18 18 1 -6 30 l-20 25 6 -25z"/>
<path d="M2590 375 c13 -14 26 -25 28 -25 3 0 -5 11 -18 25 -13 14 -26 25 -28
25 -3 0 5 -11 18 -25z"/>
<path d="M2160 1152 c-30 -15 -61 -40 -70 -55 -14 -26 -14 -28 16 -58 l31 -31
72 72 c58 58 70 74 60 86 -17 21 -47 17 -109 -14z"/>
<path d="M3328 1161 c-60 -30 -98 -61 -98 -80 0 -9 13 -30 29 -45 l29 -28 71
72 c58 58 70 74 60 86 -15 19 -46 17 -91 -5z m-28 -87 c0 -8 -19 -13 -24 -6
-3 5 1 9 9 9 8 0 15 -2 15 -3z"/>
<path d="M3596 1016 c-46 -17 -89 -57 -121 -111 -32 -54 -39 -110 -22 -166
l14 -46 -61 -74 c-165 -199 -316 -304 -316 -219 0 38 47 163 114 304 36 76 66
144 66 152 0 21 -62 73 -87 74 -30 0 -86 -72 -141 -181 -73 -144 -89 -246 -52
-328 28 -60 91 -110 141 -111 56 0 184 124 335 326 l22 29 30 -29 c49 -46 57
-77 33 -122 -28 -53 -39 -65 -90 -102 -27 -19 -56 -32 -75 -32 -44 0 -76 -10
-76 -24 1 -14 24 -41 79 -89 41 -37 46 -39 90 -32 143 21 259 175 213 285 -5
14 -32 53 -60 85 -27 33 -52 70 -56 83 -15 45 49 140 119 176 l30 16 10 -37
c5 -20 18 -41 28 -47 26 -16 47 16 47 70 0 35 -7 51 -37 87 -21 24 -45 49 -54
55 -29 19 -83 22 -123 8z m-46 -151 c-32 -47 -44 -57 -33 -28 5 12 3 14 -8 8
-11 -7 -10 -3 2 15 9 14 21 25 27 25 6 0 17 6 24 13 23 23 19 12 -12 -33z m43
13 c-11 -13 -27 -34 -36 -48 -10 -13 -17 -20 -17 -15 0 12 58 85 67 85 4 0 -3
-10 -14 -22z m-392 -51 c-11 -18 -45 -84 -76 -147 -31 -63 -53 -104 -49 -90
13 50 128 270 141 270 2 0 -5 -15 -16 -33z m-50 -44 c-47 -83 -96 -196 -107
-243 l-7 -35 -8 30 c-10 35 7 99 24 88 7 -4 8 0 4 11 -8 19 29 100 42 92 4 -3
13 6 19 19 15 31 61 105 67 105 2 0 -13 -30 -34 -67z m323 -118 c-4 -8 -11
-15 -16 -15 -6 0 -5 6 2 15 7 8 14 15 16 15 2 0 1 -7 -2 -15z m-34 -45 c0 -5
-5 -10 -11 -10 -5 0 -7 5 -4 10 3 6 8 10 11 10 2 0 4 -4 4 -10z m184 -157 c-3
-10 -14 -29 -24 -43 l-20 -25 4 33 c2 18 7 36 11 40 4 4 5 -4 1 -18 -7 -24 -6
-24 9 3 18 31 25 35 19 10z m6 -46 c0 -2 -10 -12 -22 -23 l-23 -19 19 23 c18
21 26 27 26 19z"/>
<path d="M3526 863 c-6 -14 -5 -15 5 -6 7 7 10 15 7 18 -3 3 -9 -2 -12 -12z"/>
<path d="M3077 685 c-24 -50 -20 -58 4 -12 11 22 19 41 17 43 -3 2 -12 -12
-21 -31z"/>
<path d="M3031 564 c0 -11 3 -14 6 -6 3 7 2 16 -1 19 -3 4 -6 -2 -5 -13z"/>
<path d="M4005 1020 c-44 -14 -101 -65 -133 -118 -22 -38 -27 -59 -26 -108 0
-66 11 -86 86 -173 21 -24 38 -50 38 -59 0 -8 -12 -36 -26 -63 -35 -64 -110
-116 -181 -125 -29 -4 -53 -12 -53 -18 1 -16 39 -60 85 -96 35 -28 45 -31 83
-26 127 17 232 137 220 251 -4 33 -17 59 -49 100 -77 98 -82 109 -68 152 13
42 93 127 127 135 18 5 22 2 22 -16 0 -28 27 -66 46 -66 25 0 47 66 34 103 -9
29 -53 83 -91 114 -21 16 -79 23 -114 13z m-55 -155 c-32 -47 -44 -57 -33 -28
5 12 3 14 -8 8 -11 -7 -10 -3 2 15 9 14 21 25 27 25 6 0 17 6 24 13 23 23 19
12 -12 -33z m29 -5 c-18 -22 -34 -40 -37 -40 -5 0 12 24 42 58 33 37 29 25 -5
-18z m45 -397 c-3 -10 -14 -29 -24 -43 l-20 -25 4 33 c2 18 7 36 11 40 4 4 5
-4 1 -18 -7 -24 -6 -24 9 3 18 31 25 35 19 10z m6 -46 c0 -2 -10 -12 -22 -23
l-23 -19 19 23 c18 21 26 27 26 19z"/>
<path d="M3926 863 c-6 -14 -5 -15 5 -6 7 7 10 15 7 18 -3 3 -9 -2 -12 -12z"/>
</g>
</svg>
