<?xml version="1.0" standalone="no"?>
<!DOCTYPE svg PUBLIC "-//W3C//DTD SVG 20010904//EN"
 "http://www.w3.org/TR/2001/REC-SVG-20010904/DTD/svg10.dtd">
<svg version="1.0" xmlns="http://www.w3.org/2000/svg"
 width="150.000000pt" height="141.000000pt" viewBox="0 0 150.000000 141.000000"
 preserveAspectRatio="xMidYMid meet">

<g transform="translate(0.000000,141.000000) scale(0.100000,-0.100000)"
fill="#000000" stroke="none">
<path d="M612 1358 c-20 -26 -23 -56 -7 -72 9 -9 20 -16 24 -16 30 0 44 83 15
94 -21 8 -20 8 -32 -6z m38 -32 c0 -25 -22 -51 -33 -39 -9 8 -9 48 0 56 14 15
33 6 33 -17z"/>
<path d="M707 1363 c-11 -10 -8 -25 3 -18 15 9 12 -8 -5 -31 -21 -28 -19 -34
13 -34 19 0 23 3 13 9 -10 7 -11 13 -1 31 17 32 -1 66 -23 43z"/>
<path d="M517 1343 c-13 -12 -7 -71 8 -83 21 -17 45 4 45 39 0 39 -32 65 -53
44z m41 -40 c-2 -17 -9 -28 -18 -28 -9 0 -16 11 -18 28 -3 22 1 27 18 27 17 0
21 -5 18 -27z"/>
<path d="M430 1298 c0 -19 2 -20 11 -8 8 11 9 6 7 -22 -4 -40 10 -49 42 -28
12 8 11 10 -6 10 -18 0 -22 6 -20 32 1 23 -4 33 -16 36 -13 2 -18 -3 -18 -20z"/>
<path d="M334 1228 c3 -18 10 -36 16 -42 10 -10 40 -1 40 13 0 6 -7 8 -15 5
-9 -4 -15 0 -15 9 0 8 -6 18 -12 20 -10 4 -9 8 2 16 13 9 12 11 -4 11 -16 0
-17 -5 -12 -32z"/>
<path d="M582 1215 c-249 -70 -424 -280 -448 -538 -18 -199 83 -413 249 -531
119 -84 204 -110 358 -110 107 0 121 2 200 33 196 78 317 210 380 415 20 66
15 251 -10 326 -58 179 -184 311 -366 386 -61 25 -85 28 -190 31 -83 2 -136
-2 -173 -12z m298 -36 c98 -27 160 -61 234 -129 73 -67 127 -149 158 -238 33
-95 32 -280 -1 -365 -37 -93 -72 -148 -136 -212 -223 -224 -577 -228 -799 -9
-228 225 -233 573 -11 800 148 151 356 209 555 153z"/>
<path d="M684 1108 c-9 -32 -56 -69 -70 -56 -3 4 -1 21 5 39 6 18 9 34 6 37
-3 3 -30 -3 -60 -14 -53 -18 -56 -20 -76 -74 -14 -37 -33 -65 -59 -88 -22 -18
-40 -31 -40 -29 0 2 9 30 20 61 l19 57 -29 -21 c-58 -41 -128 -150 -154 -237
-20 -70 -29 -181 -18 -218 l9 -30 22 50 c50 118 50 118 50 44 1 -47 -6 -83
-24 -128 -24 -63 -24 -63 -5 -100 10 -20 25 -45 33 -56 15 -19 16 -18 33 20
25 54 23 53 44 28 18 -22 18 -24 -1 -72 l-18 -50 35 -30 c19 -17 39 -31 43
-31 5 0 16 18 25 40 17 43 27 48 46 25 10 -12 10 -24 1 -54 -15 -51 -16 -47
29 -65 55 -22 55 -21 69 24 13 45 23 54 51 45 19 -6 19 -8 3 -47 -19 -48 -11
-58 53 -58 41 0 42 1 60 53 16 44 23 53 47 55 31 4 33 -4 12 -55 -8 -20 -13
-38 -11 -40 3 -4 116 33 121 39 1 2 15 37 30 78 15 41 36 87 47 102 39 56 76
146 88 213 7 39 28 112 46 163 19 51 34 100 34 109 0 20 -48 103 -60 103 -4 0
-14 -16 -20 -35 -15 -46 -26 -51 -43 -19 -12 23 -12 32 2 71 16 44 16 44 -9
64 -52 41 -58 42 -75 9 -13 -26 -19 -29 -35 -20 -23 12 -24 18 -10 55 9 25 7
27 -37 47 -26 11 -48 17 -50 12 -9 -26 -29 -58 -38 -61 -5 -1 -17 2 -25 7 -12
7 -13 15 -3 40 l11 30 -57 0 c-57 0 -58 -1 -67 -32z m189 -195 c75 -23 147
-108 147 -171 0 -11 9 -31 20 -45 16 -20 20 -40 20 -95 0 -56 -4 -72 -20 -87
-11 -10 -20 -22 -20 -28 0 -26 -38 -82 -70 -103 -36 -24 -44 -25 -213 -26
-174 -2 -176 -2 -215 25 -27 18 -48 44 -66 81 -14 30 -31 58 -36 61 -17 10
-12 151 5 165 8 7 17 28 21 49 15 80 65 142 139 171 78 31 197 32 288 3z"/>
<path d="M635 879 c-58 -14 -102 -48 -125 -95 -36 -74 -36 -74 108 -75 152 -2
356 2 360 6 10 9 -13 69 -35 96 -41 48 -94 70 -186 74 -45 2 -100 0 -122 -6z
m78 -33 c7 -19 -18 -42 -28 -26 -8 13 1 40 14 40 5 0 11 -6 14 -14z m77 -46
c0 -21 -24 -28 -35 -10 -8 14 3 30 21 30 8 0 14 -9 14 -20z m-155 -40 c0 -8
-8 -16 -17 -18 -13 -2 -18 3 -18 18 0 15 5 20 18 18 9 -2 17 -10 17 -18z m230
-1 c0 -7 -8 -15 -17 -17 -18 -3 -25 18 -11 32 10 10 28 1 28 -15z"/>
<path d="M450 645 c0 -13 37 -15 286 -15 224 0 285 3 282 13 -4 9 -72 13 -286
15 -246 2 -282 0 -282 -13z"/>
<path d="M450 565 c0 -11 11 -15 39 -15 24 0 48 -8 65 -21 l26 -20 26 20 c34
26 64 27 97 1 14 -11 29 -20 35 -20 5 0 17 9 27 20 23 26 65 25 99 -1 26 -20
28 -21 47 -3 11 10 38 20 61 23 23 3 43 12 46 19 3 9 -58 12 -282 12 -248 0
-286 -2 -286 -15z"/>
<path d="M490 495 c0 -8 15 -32 34 -53 l34 -37 176 0 175 0 29 29 c49 46 50
98 2 56 -29 -25 -70 -25 -103 0 -25 20 -25 20 -50 0 -32 -25 -72 -25 -104 0
-25 20 -25 20 -53 0 -36 -25 -70 -25 -103 0 -30 24 -37 25 -37 5z"/>
<path d="M1227 733 c-17 -27 -187 -496 -182 -501 9 -10 76 60 116 122 47 71
75 158 83 252 7 71 -4 148 -17 127z"/>
<path d="M263 1195 c-5 -15 22 -55 38 -55 16 0 22 52 8 61 -21 13 -39 11 -46
-6z m47 -21 c0 -9 -5 -14 -12 -12 -18 6 -21 28 -4 28 9 0 16 -7 16 -16z"/>
<path d="M212 1148 c3 -7 15 -14 27 -16 17 -3 22 -9 18 -23 -3 -13 -1 -19 6
-16 22 7 13 42 -10 45 -13 2 -23 8 -23 13 0 5 -5 9 -11 9 -6 0 -9 -6 -7 -12z"/>
<path d="M164 1106 c-6 -17 25 -65 42 -66 7 0 14 7 17 14 4 10 1 13 -9 9 -8
-3 -14 1 -14 11 0 9 -7 16 -15 16 -9 0 -12 6 -9 15 4 8 3 15 0 15 -4 0 -9 -7
-12 -14z"/>
<path d="M119 1034 c-11 -14 -9 -19 11 -35 14 -10 30 -17 35 -15 18 5 18 39
-1 53 -23 17 -29 16 -45 -3z m41 -19 c0 -9 -6 -12 -15 -9 -8 4 -15 10 -15 15
0 5 7 9 15 9 8 0 15 -7 15 -15z"/>
<path d="M26 694 c-8 -20 -8 -98 0 -118 3 -9 17 -16 30 -16 23 0 24 3 24 75 0
72 -1 75 -24 75 -13 0 -27 -7 -30 -16z"/>
<path d="M1390 636 l0 -76 30 0 31 0 -3 73 c-3 70 -4 72 -30 75 l-28 3 0 -75z"/>
</g>
</svg>
